<svg width="14" height="14" viewBox="0 0 14 14" fill="none" xmlns="http://www.w3.org/2000/svg">
<path d="M8.71875 9.6875C8.11458 10.1042 7.42708 10.3125 6.65625 10.3125C5.88542 10.3125 5.1875 10.1042 4.5625 9.6875C3.95833 9.25 3.52083 8.6875 3.25 8H4.34375C4.86458 8.875 5.63542 9.3125 6.65625 9.3125C7.67708 9.3125 8.44792 8.875 8.96875 8H10.0625C9.79167 8.6875 9.34375 9.25 8.71875 9.6875ZM2.875 10.4375C3.9375 11.4792 5.19792 12 6.65625 12C8.11458 12 9.36458 11.4792 10.4062 10.4375C11.4688 9.375 12 8.11458 12 6.65625C12 5.19792 11.4688 3.94792 10.4062 2.90625C9.36458 1.84375 8.11458 1.3125 6.65625 1.3125C5.19792 1.3125 3.9375 1.84375 2.875 2.90625C1.83333 3.94792 1.3125 5.19792 1.3125 6.65625C1.3125 8.11458 1.83333 9.375 2.875 10.4375ZM1.9375 1.96875C3.25 0.65625 4.82292 0 6.65625 0C8.48958 0 10.0521 0.65625 11.3438 1.96875C12.6562 3.26042 13.3125 4.82292 13.3125 6.65625C13.3125 8.48958 12.6562 10.0625 11.3438 11.375C10.0521 12.6667 8.48958 13.3125 6.65625 13.3125C4.82292 13.3125 3.25 12.6667 1.9375 11.375C0.645833 10.0625 0 8.48958 0 6.65625C0 4.82292 0.645833 3.26042 1.9375 1.96875ZM5 5.71875C4.8125 5.90625 4.58333 6 4.3125 6C4.04167 6 3.80208 5.90625 3.59375 5.71875C3.40625 5.51042 3.3125 5.27083 3.3125 5C3.3125 4.72917 3.40625 4.5 3.59375 4.3125C3.80208 4.10417 4.04167 4 4.3125 4C4.58333 4 4.8125 4.10417 5 4.3125C5.20833 4.5 5.3125 4.72917 5.3125 5C5.3125 5.27083 5.20833 5.51042 5 5.71875ZM9.6875 5.71875C9.5 5.90625 9.27083 6 9 6C8.72917 6 8.48958 5.90625 8.28125 5.71875C8.09375 5.51042 8 5.27083 8 5C8 4.72917 8.09375 4.5 8.28125 4.3125C8.48958 4.10417 8.72917 4 9 4C9.27083 4 9.5 4.10417 9.6875 4.3125C9.89583 4.5 10 4.72917 10 5C10 5.27083 9.89583 5.51042 9.6875 5.71875Z" fill="white"/>
</svg>
